<svg width="158" height="183" viewBox="0 0 158 183" fill="none" xmlns="http://www.w3.org/2000/svg">
<path d="M75.403 5.43888L75.403 5.43878C75.5839 5.12539 75.7577 4.8167 75.9238 4.5219C76.3018 3.85084 76.6393 3.25172 76.9258 2.83279C77.1328 2.53007 77.4279 2.14137 77.8313 1.86677C78.3279 1.52876 78.9906 1.36886 79.6843 1.62773C80.2307 1.83161 80.6157 2.23655 80.8633 2.53611C81.1357 2.86553 81.4082 3.2784 81.6869 3.73448C82.0623 4.34898 82.518 5.15912 83.0712 6.14284C83.3335 6.60904 83.6176 7.11421 83.9255 7.65602L83.9255 7.65609C85.3232 10.1158 88.5951 15.8277 91.1957 20.3483L91.1958 20.3485C92.5 22.6161 93.6878 24.7296 94.5514 26.3095C94.9824 27.0981 95.3371 27.7618 95.5862 28.2484C95.7097 28.4896 95.8145 28.7012 95.8912 28.8684C95.9286 28.9499 95.9683 29.0404 96.0017 29.1281C96.018 29.171 96.0405 29.2333 96.061 29.3053L96.0619 29.3083C96.0744 29.3524 96.1243 29.5273 96.1243 29.7481C96.1243 30.2933 95.8505 30.6736 95.6475 30.8722C95.4568 31.0588 95.258 31.1611 95.1459 31.2124C94.916 31.3177 94.6763 31.3736 94.5046 31.4075C94.1345 31.4805 93.6482 31.5303 93.0899 31.5674C91.9533 31.6429 90.2907 31.6792 88.1349 31.6792H83.1456V102.508V173.226L85.0879 173.087C88.1351 172.87 92.5327 172.072 96.4661 171.117C98.4257 170.641 100.241 170.133 101.69 169.65C103.007 169.211 103.877 168.837 104.305 168.584C104.31 168.56 104.315 168.533 104.321 168.501C104.409 168.004 104.485 167.032 104.541 165.056C104.652 161.153 104.681 153.706 104.724 139.238C104.772 122.805 104.708 104.662 104.582 98.9172L104.385 89.9005H99.4272C97.3811 89.9005 95.7376 89.8626 94.5925 89.789C94.0285 89.7528 93.5391 89.7052 93.1694 89.6391C92.9974 89.6083 92.7685 89.5597 92.5512 89.4723C92.449 89.4311 92.2542 89.3447 92.0603 89.1806C91.8696 89.0192 91.5019 88.6229 91.5019 87.988C91.5019 87.7556 91.5578 87.5707 91.5701 87.5299L91.5713 87.526C91.5926 87.4548 91.6158 87.3931 91.6324 87.351C91.6665 87.2645 91.7072 87.174 91.7461 87.0913C91.8258 86.9214 91.9353 86.704 92.0654 86.4537C92.3277 85.949 92.7017 85.257 93.157 84.4319C94.069 82.7791 95.3239 80.5622 96.7022 78.1783C99.4514 73.4233 102.944 67.3678 104.464 64.722L104.464 64.7219C105.559 62.8151 106.323 61.549 106.88 60.8166C107.129 60.4889 107.486 60.0597 107.952 59.8124C108.226 59.6677 108.633 59.5338 109.115 59.6186C109.597 59.7036 109.93 59.969 110.128 60.1887L110.129 60.1894C110.236 60.3083 110.329 60.4543 110.348 60.4826C110.395 60.5557 110.453 60.6467 110.517 60.7497C110.645 60.9571 110.817 61.2413 111.024 61.5878C111.44 62.2823 112.009 63.2478 112.682 64.3966C114.028 66.6952 115.795 69.7396 117.588 72.8447C121.158 79.029 124.874 85.5288 125.528 86.7971L125.528 86.7977L126 87.7138L127.125 89.9005H124.666H117.96H112.753V127.69C112.753 138.492 112.774 148.312 112.809 155.43C112.826 158.99 112.846 161.871 112.868 163.862C112.871 164.112 112.874 164.348 112.877 164.569C113.111 164.43 113.361 164.278 113.626 164.115C115.168 163.166 117.143 161.87 119.104 160.503C134.062 150.077 144.468 133.364 147.75 114.405C148.731 108.736 148.645 98.0131 147.56 91.9206C144.348 73.8898 135.115 58.6584 120.919 47.9235C117.124 45.0538 110.733 41.2171 107.693 39.9545C107.146 39.7271 106.619 39.4417 106.217 39.0993C106.021 38.9318 105.78 38.6885 105.608 38.362C105.428 38.0203 105.27 37.4648 105.511 36.8563L105.511 36.8554C106.18 35.1688 106.639 34.0602 107.027 33.3833C107.223 33.042 107.481 32.6623 107.856 32.3778C108.301 32.0398 108.772 31.9363 109.186 31.9363C109.606 31.9363 110.045 32.0744 110.342 32.1777C110.696 32.3009 111.107 32.4711 111.55 32.6711C112.44 33.0727 113.545 33.6326 114.746 34.2831C117.149 35.5851 120.009 37.29 122.431 38.9136L121.596 40.1595L122.431 38.9136C134.079 46.7236 143 57.0916 149.056 69.8524C154.149 80.5841 156.122 88.8826 156.443 100.894C156.575 105.855 156.476 110.318 156.156 112.924C153.342 135.833 141.122 155.714 122.022 168.446C108.852 177.224 94.5882 181.52 78.6893 181.5C57.9296 181.473 39.0507 173.57 24.173 158.694C12.3376 146.86 5.10598 132.728 2.25462 115.892C1.48474 111.347 1.40243 109.479 1.57649 101.802C1.744 94.3962 1.94413 92.1277 2.85592 87.8557L2.85593 87.8556C7.27756 67.1427 19.3717 49.3716 36.722 38.1354C38.5065 36.9797 40.9647 35.5701 43.0663 34.4511C44.1182 33.891 45.0981 33.3945 45.8729 33.0342C46.2581 32.8551 46.6115 32.7008 46.907 32.5882C47.0538 32.5322 47.2059 32.4789 47.3521 32.4376C47.4664 32.4053 47.6994 32.3435 47.9626 32.3435C48.468 32.3435 48.8359 32.5714 49.0025 32.6892C49.1972 32.827 49.3553 32.9872 49.4742 33.1218C49.7152 33.3948 49.9445 33.7348 50.1519 34.0833C50.5737 34.7922 51.016 35.7252 51.3916 36.7172L51.3917 36.7174L51.3957 36.7279C51.4822 36.9562 51.6829 37.4858 51.5715 38.1016C51.4472 38.7887 51.0143 39.2453 50.65 39.5433C50.2883 39.8392 49.8036 40.131 49.2341 40.4454C48.6474 40.7693 47.8822 41.1641 46.9108 41.6605L46.2283 40.3248L46.9108 41.6605C40.8166 44.7746 35.9878 48.3993 29.9476 54.4377L29.9476 54.4378C23.7629 60.6202 19.9535 65.9736 16.3213 73.5757L16.3213 73.5758C7.64245 91.7387 7.19157 112.209 15.0631 130.768L13.847 131.284L15.0631 130.768C20.7566 144.193 30.313 155.351 42.7126 163.05L42.7128 163.05C43.5729 163.585 44.4107 164.094 45.1116 164.511C45.1304 164.106 45.1475 163.622 45.1627 163.047C45.2436 159.988 45.2653 154.614 45.2653 145.444V125.322H40.2999C38.5055 125.322 36.8447 125.287 35.6108 125.231C34.9974 125.202 34.4694 125.168 34.0765 125.127C33.8854 125.107 33.6911 125.082 33.5229 125.048C33.4439 125.032 33.3224 125.005 33.193 124.958C33.1292 124.935 33.022 124.893 32.9024 124.822C32.8076 124.766 32.5557 124.606 32.3658 124.291L32.3644 124.289C32.1313 123.901 32.1439 123.529 32.1471 123.438C32.1522 123.295 32.1757 123.179 32.1901 123.116C32.22 122.985 32.262 122.866 32.292 122.786C32.3562 122.615 32.4455 122.415 32.5429 122.21C32.7422 121.789 33.0332 121.222 33.3878 120.56C34.1 119.229 35.1018 117.447 36.2225 115.532C38.4475 111.73 41.906 105.738 43.9054 102.221L45.1327 102.918L43.9054 102.221C44.9117 100.451 45.8685 98.8127 46.6007 97.5982C46.966 96.9925 47.2807 96.4832 47.5202 96.1126C47.6386 95.9293 47.7478 95.7658 47.8403 95.6368C47.8854 95.574 47.9389 95.5019 47.9956 95.4337C48.0031 95.4247 48.1643 95.2167 48.4134 95.062C48.4142 95.0615 48.4149 95.0611 48.4157 95.0606L49.2045 96.3365C49.362 96.2386 49.5033 96.2599 50.2449 97.4141L75.403 5.43888ZM75.403 5.43888C74.1845 7.55101 71.4007 12.3935 69.2165 16.2007L69.2164 16.2008M75.403 5.43888L69.2164 16.2008M69.2164 16.2008C67.0325 20.0079 64.5404 24.3169 63.6786 25.7769L63.6785 25.7771M69.2164 16.2008L63.6785 25.7771M63.6785 25.7771C63.2306 26.5362 62.8192 27.2894 62.5154 27.8978C62.3645 28.1998 62.2315 28.4833 62.1325 28.7226C62.0836 28.8409 62.0346 28.9686 61.9953 29.0937L61.9949 29.0948C61.9695 29.1759 61.8942 29.4155 61.8942 29.6947C61.8942 30.4545 62.3886 30.8952 62.6512 31.0688C62.9108 31.2403 63.1827 31.3246 63.3589 31.3708C63.734 31.4692 64.2118 31.5259 64.7406 31.5656C65.8276 31.6471 67.4936 31.6792 69.854 31.6792C72.599 31.6792 74.1129 31.6984 74.9632 31.773C74.9652 31.9726 74.9671 32.206 74.969 32.4726C74.9761 33.4722 74.9823 34.9258 74.9875 36.7851C74.9979 40.5032 75.0044 45.8368 75.0068 52.3911C75.0118 65.4994 75.0005 83.4863 74.9719 103.188L74.8708 173.222L72.7267 173.068C68.1548 172.738 62.8237 171.628 57.0985 169.792L57.0984 169.792M63.6785 25.7771L57.0984 169.792M57.0984 169.792C55.9743 169.432 55.1583 169.169 54.5473 168.952C53.9204 168.729 53.6061 168.587 53.4392 168.488C53.4271 168.481 53.4168 168.474 53.4081 168.469C53.3944 168.415 53.3694 168.305 53.3286 168.087C53.3311 168.101 53.3151 167.972 53.2966 167.591C53.2803 167.255 53.2649 166.799 53.2506 166.236C53.2221 165.111 53.199 163.584 53.1812 161.78C53.1456 158.172 53.1314 153.473 53.1375 148.686C53.1497 139.072 53.2439 129.231 53.4027 127.098L53.4027 127.098M57.0984 169.792L53.4027 127.098M53.4027 127.098L53.5352 125.318L58.8115 125.23L65.4571 125.118L68.0001 125.075M53.4027 127.098L68.0001 125.075M68.0001 125.075L66.7322 122.87M68.0001 125.075L66.7322 122.87M66.7322 122.87L60.4108 111.878L59.1105 112.625L66.7322 122.87ZM107.812 62.088C107.339 62.7757 106.688 63.8611 105.764 65.469C104.244 68.1167 100.75 74.1737 98.0008 78.9291C96.1372 82.1523 94.5034 85.0635 93.644 86.6756C93.624 86.6714 93.615 86.669 93.615 86.669C93.615 86.6691 93.625 86.6719 93.6426 86.6782C93.2349 87.4431 93.0019 87.9149 93.0019 87.988C93.0019 88.1097 93.5139 88.2075 94.4727 88.2773C94.4598 88.341 94.4472 88.3803 94.4458 88.3847L94.4456 88.3851C94.4419 88.3977 94.4384 88.4085 94.4355 88.4171C94.4331 88.4245 94.431 88.4303 94.4296 88.4345C94.4282 88.4384 94.4269 88.4417 94.426 88.4443C94.4246 88.448 94.4237 88.4504 94.4233 88.4512C94.4225 88.4533 94.4249 88.4472 94.4321 88.4308C94.4391 88.415 94.4488 88.3936 94.4618 88.3659C94.4739 88.3401 94.4877 88.3114 94.5032 88.2795C95.6018 88.3581 97.2748 88.4005 99.4272 88.4005H105.852L106.082 98.8843C106.209 104.651 106.272 122.812 106.224 139.242C106.138 168.153 106.11 169.134 105.358 169.686C103.146 171.31 91.5232 174.133 85.1944 174.583L107.812 62.088ZM104.47 168.477C104.47 168.477 104.47 168.477 104.47 168.477L104.47 168.477ZM74.9503 30.9859C74.9485 30.9627 74.9489 30.9571 74.95 30.9801C74.9501 30.9814 74.9502 30.9833 74.9503 30.9859Z" fill="#B3B3B3" stroke="#909090" stroke-width="3"/>
</svg>
