<svg width="50" height="48" viewBox="0 0 50 48" fill="none" xmlns="http://www.w3.org/2000/svg">
<path fill-rule="evenodd" clip-rule="evenodd" d="M40.3619 6.37147C35.9917 9.87553 30.1904 15.0477 27.4706 17.8651C24.7498 20.6825 22.1217 22.9873 21.6284 22.9873C21.1361 22.9873 18.5907 21.1883 15.9716 18.9895C13.3524 16.7907 10.824 15.0067 10.3516 15.0247C9.88021 15.0437 8.40421 15.9672 7.07372 17.0785L4.65393 19.0984L14.963 29.4717L25.273 39.8459L29.4529 32.49C34.0712 24.3615 39.0224 17.3454 45.5513 9.67464C49.3594 5.20112 51.2579 0 49.0823 0C48.6568 0 44.7331 2.86741 40.3619 6.37147ZM1.67502 5.82577C0.267795 7.38491 0.0256163 10.3183 0.0256163 25.8147C0.0256163 49.6765 -1.61582 47.9734 21.3802 47.9734H38.7493L40.8143 45.3399C42.6332 43.0222 42.8803 41.3281 42.8803 31.1927C42.8803 19.808 42.8584 19.6991 40.921 21.4581C39.2606 22.9643 38.9178 24.7843 38.6786 33.3565L38.3955 43.4759L21.5267 43.7508C8.69921 43.9597 4.46557 43.7208 3.85264 42.7513C2.66168 40.8694 2.8321 11.2058 4.04698 8.92905C4.99178 7.16003 6.27742 6.99313 19.2455 6.96414C30.1206 6.94016 33.8619 6.59135 35.3469 5.46497C37.072 4.1567 35.4455 3.99779 20.3029 3.99779C5.12035 3.99779 3.15002 4.19068 1.67502 5.82577Z" fill="#909090"/>
</svg>
